<svg data-v-423bf9ae="" xmlns="http://www.w3.org/2000/svg" viewBox="0 0 433 90" class="iconLeft"><!----><!----><!----><g data-v-423bf9ae="" id="ec18cf74-dc05-4772-ae3c-5eb6ee6c806f" fill="#321926" transform="matrix(5.240174759780263,0,0,5.240174759780263,91.5659691403032,2.947596633446345)"><path d="M5.87 13.75L5.87 13.75Q4.33 13.75 3.10 13.10L3.10 13.10L3.10 13.10Q1.88 12.45 1.18 11.28L1.18 11.28L1.18 11.28Q0.48 10.12 0.48 8.65L0.48 8.65L0.48 8.65Q0.48 7.18 1.18 6.02L1.18 6.02L1.18 6.02Q1.88 4.86 3.10 4.21L3.10 4.21L3.10 4.21Q4.33 3.56 5.87 3.56L5.87 3.56L5.87 3.56Q7.21 3.56 8.29 4.03L8.29 4.03L8.29 4.03Q9.37 4.51 10.08 5.40L10.08 5.40L8.32 7.00L8.32 7.00Q7.36 5.85 6.01 5.85L6.01 5.85L6.01 5.85Q5.21 5.85 4.58 6.20L4.58 6.20L4.58 6.20Q3.96 6.55 3.62 7.19L3.62 7.19L3.62 7.19Q3.28 7.83 3.28 8.65L3.28 8.65L3.28 8.65Q3.28 9.48 3.62 10.11L3.62 10.11L3.62 10.11Q3.96 10.75 4.58 11.10L4.58 11.10L4.58 11.10Q5.21 11.45 6.01 11.45L6.01 11.45L6.01 11.45Q7.36 11.45 8.32 10.30L8.32 10.30L10.08 11.90L10.08 11.90Q9.37 12.80 8.29 13.27L8.29 13.27L8.29 13.27Q7.21 13.75 5.87 13.75L5.87 13.75ZM14.99 13.68L14.99 13.68Q13.78 13.68 12.80 13.17L12.80 13.17L12.80 13.17Q11.82 12.67 11.26 11.77L11.26 11.77L11.26 11.77Q10.71 10.88 10.71 9.74L10.71 9.74L10.71 9.74Q10.71 8.62 11.26 7.73L11.26 7.73L11.26 7.73Q11.82 6.83 12.79 6.33L12.79 6.33L12.79 6.33Q13.76 5.84 14.99 5.84L14.99 5.84L14.99 5.84Q16.23 5.84 17.21 6.33L17.21 6.33L17.21 6.33Q18.19 6.83 18.73 7.72L18.73 7.72L18.73 7.72Q19.28 8.61 19.28 9.74L19.28 9.74L19.28 9.74Q19.28 10.88 18.73 11.77L18.73 11.77L18.73 11.77Q18.19 12.67 17.21 13.17L17.21 13.17L17.21 13.17Q16.23 13.68 14.99 13.68L14.99 13.68ZM14.99 11.56L14.99 11.56Q15.69 11.56 16.14 11.08L16.14 11.08L16.14 11.08Q16.59 10.60 16.59 9.74L16.59 9.74L16.59 9.74Q16.59 8.90 16.14 8.43L16.14 8.43L16.14 8.43Q15.69 7.95 14.99 7.95L14.99 7.95L14.99 7.95Q14.29 7.95 13.85 8.43L13.85 8.43L13.85 8.43Q13.40 8.90 13.40 9.74L13.40 9.74L13.40 9.74Q13.40 10.60 13.85 11.08L13.85 11.08L13.85 11.08Q14.29 11.56 14.99 11.56L14.99 11.56ZM25.91 3.16L28.57 3.16L28.57 13.55L26.04 13.55L26.04 12.80L26.04 12.80Q25.30 13.68 23.81 13.68L23.81 13.68L23.81 13.68Q22.78 13.68 21.92 13.20L21.92 13.20L21.92 13.20Q21.07 12.71 20.57 11.82L20.57 11.82L20.57 11.82Q20.08 10.92 20.08 9.74L20.08 9.74L20.08 9.74Q20.08 8.57 20.57 7.68L20.57 7.68L20.57 7.68Q21.07 6.79 21.92 6.31L21.92 6.31L21.92 6.31Q22.78 5.84 23.81 5.84L23.81 5.84L23.81 5.84Q25.17 5.84 25.91 6.62L25.91 6.62L25.91 3.16ZM24.37 11.56L24.37 11.56Q25.06 11.56 25.51 11.08L25.51 11.08L25.51 11.08Q25.96 10.60 25.96 9.74L25.96 9.74L25.96 9.74Q25.96 8.90 25.52 8.43L25.52 8.43L25.52 8.43Q25.07 7.95 24.37 7.95L24.37 7.95L24.37 7.95Q23.67 7.95 23.23 8.43L23.23 8.43L23.23 8.43Q22.78 8.90 22.78 9.74L22.78 9.74L22.78 9.74Q22.78 10.60 23.23 11.08L23.23 11.08L23.23 11.08Q23.67 11.56 24.37 11.56L24.37 11.56ZM38.04 9.77L38.04 9.77Q38.04 9.80 38.00 10.43L38.00 10.43L32.48 10.43L32.48 10.43Q32.65 11.02 33.13 11.33L33.13 11.33L33.13 11.33Q33.61 11.65 34.34 11.65L34.34 11.65L34.34 11.65Q34.89 11.65 35.29 11.49L35.29 11.49L35.29 11.49Q35.69 11.34 36.09 10.99L36.09 10.99L37.49 12.45L37.49 12.45Q36.39 13.68 34.26 13.68L34.26 13.68L34.26 13.68Q32.93 13.68 31.92 13.17L31.92 13.17L31.92 13.17Q30.91 12.67 30.36 11.77L30.36 11.77L30.36 11.77Q29.81 10.88 29.81 9.74L29.81 9.74L29.81 9.74Q29.81 8.62 30.34 7.73L30.34 7.73L30.34 7.73Q30.88 6.85 31.84 6.34L31.84 6.34L31.84 6.34Q32.79 5.84 33.98 5.84L33.98 5.84L33.98 5.84Q35.11 5.84 36.04 6.31L36.04 6.31L36.04 6.31Q36.96 6.78 37.50 7.66L37.50 7.66L37.50 7.66Q38.04 8.55 38.04 9.77L38.04 9.77ZM33.99 7.73L33.99 7.73Q33.38 7.73 32.96 8.08L32.96 8.08L32.96 8.08Q32.55 8.43 32.44 9.03L32.44 9.03L35.55 9.03L35.55 9.03Q35.43 8.43 35.02 8.08L35.02 8.08L35.02 8.08Q34.61 7.73 33.99 7.73L33.99 7.73ZM41.80 6.87L41.80 6.87Q42.21 6.36 42.86 6.10L42.86 6.10L42.86 6.10Q43.51 5.84 44.35 5.84L44.35 5.84L44.35 8.23L44.35 8.23Q43.99 8.19 43.75 8.19L43.75 8.19L43.75 8.19Q42.90 8.19 42.41 8.65L42.41 8.65L42.41 8.65Q41.93 9.11 41.93 10.07L41.93 10.07L41.93 13.55L39.27 13.55L39.27 5.96L41.80 5.96L41.80 6.87ZM48.23 13.68L48.23 13.68Q47.28 13.68 46.35 13.46L46.35 13.46L46.35 13.46Q45.43 13.24 44.87 12.89L44.87 12.89L45.67 11.07L45.67 11.07Q46.19 11.40 46.90 11.58L46.90 11.58L46.90 11.58Q47.61 11.77 48.31 11.77L48.31 11.77L48.31 11.77Q48.96 11.77 49.23 11.64L49.23 11.64L49.23 11.64Q49.50 11.51 49.50 11.26L49.50 11.26L49.50 11.26Q49.50 11.00 49.17 10.90L49.17 10.90L49.17 10.90Q48.85 10.79 48.13 10.70L48.13 10.70L48.13 10.70Q47.22 10.58 46.58 10.40L46.58 10.40L46.58 10.40Q45.95 10.22 45.49 9.73L45.49 9.73L45.49 9.73Q45.02 9.24 45.02 8.36L45.02 8.36L45.02 8.36Q45.02 7.63 45.46 7.06L45.46 7.06L45.46 7.06Q45.89 6.50 46.72 6.17L46.72 6.17L46.72 6.17Q47.56 5.84 48.72 5.84L48.72 5.84L48.72 5.84Q49.55 5.84 50.36 6.01L50.36 6.01L50.36 6.01Q51.17 6.17 51.72 6.48L51.72 6.48L50.92 8.29L50.92 8.29Q49.91 7.73 48.73 7.73L48.73 7.73L48.73 7.73Q48.10 7.73 47.81 7.87L47.81 7.87L47.81 7.87Q47.52 8.02 47.52 8.26L47.52 8.26L47.52 8.26Q47.52 8.53 47.84 8.63L47.84 8.63L47.84 8.63Q48.16 8.74 48.90 8.85L48.90 8.85L48.90 8.85Q49.84 8.99 50.46 9.17L50.46 9.17L50.46 9.17Q51.07 9.35 51.53 9.83L51.53 9.83L51.53 9.83Q51.98 10.32 51.98 11.19L51.98 11.19L51.98 11.19Q51.98 11.90 51.55 12.47L51.55 12.47L51.55 12.47Q51.11 13.03 50.27 13.36L50.27 13.36L50.27 13.36Q49.42 13.68 48.23 13.68L48.23 13.68ZM60.89 9.77L60.89 9.77Q60.89 9.80 60.84 10.43L60.84 10.43L55.33 10.43L55.33 10.43Q55.50 11.02 55.98 11.33L55.98 11.33L55.98 11.33Q56.46 11.65 57.19 11.65L57.19 11.65L57.19 11.65Q57.74 11.65 58.13 11.49L58.13 11.49L58.13 11.49Q58.53 11.34 58.94 10.99L58.94 10.99L60.34 12.45L60.34 12.45Q59.23 13.68 57.11 13.68L57.11 13.68L57.11 13.68Q55.78 13.68 54.77 13.17L54.77 13.17L54.77 13.17Q53.76 12.67 53.21 11.77L53.21 11.77L53.21 11.77Q52.65 10.88 52.65 9.74L52.65 9.74L52.65 9.74Q52.65 8.62 53.19 7.73L53.19 7.73L53.19 7.73Q53.73 6.85 54.68 6.34L54.68 6.34L54.68 6.34Q55.64 5.84 56.83 5.84L56.83 5.84L56.83 5.84Q57.96 5.84 58.88 6.31L58.88 6.31L58.88 6.31Q59.81 6.78 60.35 7.66L60.35 7.66L60.35 7.66Q60.89 8.55 60.89 9.77L60.89 9.77ZM56.84 7.73L56.84 7.73Q56.22 7.73 55.81 8.08L55.81 8.08L55.81 8.08Q55.40 8.43 55.29 9.03L55.29 9.03L58.39 9.03L58.39 9.03Q58.28 8.43 57.87 8.08L57.87 8.08L57.87 8.08Q57.46 7.73 56.84 7.73L56.84 7.73ZM62.12 13.55L62.12 5.96L64.78 5.96L64.78 13.55L62.12 13.55ZM63.45 5.12L63.45 5.12Q62.72 5.12 62.27 4.72L62.27 4.72L62.27 4.72Q61.82 4.31 61.82 3.71L61.82 3.71L61.82 3.71Q61.82 3.11 62.27 2.70L62.27 2.70L62.27 2.70Q62.72 2.30 63.45 2.30L63.45 2.30L63.45 2.30Q64.18 2.30 64.62 2.68L64.62 2.68L64.62 2.68Q65.07 3.07 65.07 3.67L65.07 3.67L65.07 3.67Q65.07 4.30 64.62 4.71L64.62 4.71L64.62 4.71Q64.18 5.12 63.45 5.12L63.45 5.12Z"></path></g><defs data-v-423bf9ae=""><linearGradient data-v-423bf9ae="" gradientTransform="rotate(25)" id="17aa1f0c-d849-4e9e-b728-dd3aa97ea968" x1="0%" y1="0%" x2="100%" y2="0%"><stop data-v-423bf9ae="" offset="0%" style="stop-color: rgb(212, 24, 234); stop-opacity: 1;"></stop><stop data-v-423bf9ae="" offset="100%" style="stop-color: rgb(236, 208, 98); stop-opacity: 1;"></stop></linearGradient></defs><g data-v-423bf9ae="" id="5d39cc3a-ad2a-47db-9166-0812911129d3" transform="matrix(2.8125,0,0,2.8125,-7.170000076293945,0)" stroke="none" fill="url(#17aa1f0c-d849-4e9e-b728-dd3aa97ea968)"><path d="M2.83 18.247l26.34-9.124L2.83 0zM29.17 32V13.753L2.83 22.877z"></path></g><!----></svg>